<svg xmlns="http://www.w3.org/2000/svg" xmlns:xlink="http://www.w3.org/1999/xlink" zoomAndPan="magnify" preserveAspectRatio="xMidYMid meet" version="1.0" viewBox="248.08 1075.08 2945.85 542.3"><defs><g></g></defs><g fill="#000000" fill-opacity="1"><g transform="translate(205.392107, 1610.378745)"><g><path d="M 503.8125 -250.5 C 503.8125 -198.71875 495.0625 -153.582031 477.5625 -115.09375 C 460.070312 -76.613281 434.179688 -46.644531 399.890625 -25.1875 C 365.609375 -3.726562 323.507812 7 273.59375 7 C 221.8125 7 178.773438 -3.726562 144.484375 -25.1875 C 110.203125 -46.644531 84.664062 -76.734375 67.875 -115.453125 C 51.082031 -154.171875 42.6875 -199.421875 42.6875 -251.203125 C 42.6875 -302.046875 51.082031 -346.710938 67.875 -385.203125 C 84.664062 -423.691406 110.203125 -453.664062 144.484375 -475.125 C 178.773438 -496.582031 222.046875 -507.3125 274.296875 -507.3125 C 324.210938 -507.3125 366.195312 -496.695312 400.25 -475.46875 C 434.300781 -454.238281 460.070312 -424.378906 477.5625 -385.890625 C 495.0625 -347.410156 503.8125 -302.28125 503.8125 -250.5 Z M 109.15625 -250.5 C 109.15625 -187.53125 122.445312 -137.96875 149.03125 -101.8125 C 175.625 -65.65625 217.144531 -47.578125 273.59375 -47.578125 C 330.039062 -47.578125 371.441406 -65.65625 397.796875 -101.8125 C 424.148438 -137.96875 437.328125 -187.53125 437.328125 -250.5 C 437.328125 -313.476562 424.265625 -362.8125 398.140625 -398.5 C 372.023438 -434.1875 330.742188 -452.03125 274.296875 -452.03125 C 217.378906 -452.03125 175.625 -434.1875 149.03125 -398.5 C 122.445312 -362.8125 109.15625 -313.476562 109.15625 -250.5 Z M 109.15625 -250.5 "></path></g></g></g><g fill="#000000" fill-opacity="1"><g transform="translate(737.883808, 1610.378745)"><g><path d="M 232.3125 -327.46875 L 137.84375 -327.46875 L 137.84375 0 L 76.265625 0 L 76.265625 -327.46875 L 10.5 -327.46875 L 10.5 -356.171875 L 76.265625 -377.15625 L 76.265625 -398.84375 C 76.265625 -447.363281 86.878906 -482.234375 108.109375 -503.453125 C 129.335938 -524.679688 159.3125 -535.296875 198.03125 -535.296875 C 212.488281 -535.296875 226.015625 -534.007812 238.609375 -531.4375 C 251.203125 -528.875 261.929688 -525.960938 270.796875 -522.703125 L 254.703125 -474.421875 C 247.234375 -476.753906 238.601562 -479.085938 228.8125 -481.421875 C 219.019531 -483.753906 208.988281 -484.921875 198.71875 -484.921875 C 178.195312 -484.921875 162.921875 -478.035156 152.890625 -464.265625 C 142.859375 -450.503906 137.84375 -428.929688 137.84375 -399.546875 L 137.84375 -375.0625 L 232.3125 -375.0625 Z M 232.3125 -327.46875 "></path></g></g></g><g fill="#000000" fill-opacity="1"><g transform="translate(964.595021, 1610.378745)"><g><path d="M 90.96875 -515.703125 C 100.289062 -515.703125 108.566406 -512.550781 115.796875 -506.25 C 123.035156 -499.957031 126.65625 -490.046875 126.65625 -476.515625 C 126.65625 -462.992188 123.035156 -453.082031 115.796875 -446.78125 C 108.566406 -440.476562 100.289062 -437.328125 90.96875 -437.328125 C 80.707031 -437.328125 72.078125 -440.476562 65.078125 -446.78125 C 58.078125 -453.082031 54.578125 -462.992188 54.578125 -476.515625 C 54.578125 -490.046875 58.078125 -499.957031 65.078125 -506.25 C 72.078125 -512.550781 80.707031 -515.703125 90.96875 -515.703125 Z M 121.046875 -375.0625 L 121.046875 0 L 59.484375 0 L 59.484375 -375.0625 Z M 121.046875 -375.0625 "></path></g></g></g><g fill="#000000" fill-opacity="1"><g transform="translate(1131.129914, 1610.378745)"><g><path d="M 209.921875 7 C 176.335938 7 146.710938 0.234375 121.046875 -13.296875 C 95.390625 -26.828125 75.210938 -47.816406 60.515625 -76.265625 C 45.828125 -104.722656 38.484375 -141.109375 38.484375 -185.421875 C 38.484375 -231.609375 46.0625 -269.160156 61.21875 -298.078125 C 76.382812 -327.003906 97.257812 -348.234375 123.84375 -361.765625 C 150.4375 -375.296875 180.53125 -382.0625 214.125 -382.0625 C 232.78125 -382.0625 251.085938 -380.078125 269.046875 -376.109375 C 287.003906 -372.140625 301.582031 -367.359375 312.78125 -361.765625 L 293.890625 -310.6875 C 282.691406 -314.882812 269.628906 -318.847656 254.703125 -322.578125 C 239.773438 -326.304688 225.78125 -328.171875 212.71875 -328.171875 C 139.007812 -328.171875 102.15625 -280.820312 102.15625 -186.125 C 102.15625 -140.875 111.132812 -106.238281 129.09375 -82.21875 C 147.0625 -58.195312 173.769531 -46.1875 209.21875 -46.1875 C 229.28125 -46.1875 247.238281 -48.285156 263.09375 -52.484375 C 278.957031 -56.679688 293.421875 -61.8125 306.484375 -67.875 L 306.484375 -13.296875 C 293.890625 -6.765625 280.007812 -1.75 264.84375 1.75 C 249.6875 5.25 231.378906 7 209.921875 7 Z M 209.921875 7 "></path></g></g></g><g fill="#000000" fill-opacity="1"><g transform="translate(1453.004106, 1610.378745)"><g><path d="M 90.96875 -515.703125 C 100.289062 -515.703125 108.566406 -512.550781 115.796875 -506.25 C 123.035156 -499.957031 126.65625 -490.046875 126.65625 -476.515625 C 126.65625 -462.992188 123.035156 -453.082031 115.796875 -446.78125 C 108.566406 -440.476562 100.289062 -437.328125 90.96875 -437.328125 C 80.707031 -437.328125 72.078125 -440.476562 65.078125 -446.78125 C 58.078125 -453.082031 54.578125 -462.992188 54.578125 -476.515625 C 54.578125 -490.046875 58.078125 -499.957031 65.078125 -506.25 C 72.078125 -512.550781 80.707031 -515.703125 90.96875 -515.703125 Z M 121.046875 -375.0625 L 121.046875 0 L 59.484375 0 L 59.484375 -375.0625 Z M 121.046875 -375.0625 "></path></g></g></g><g fill="#000000" fill-opacity="1"><g transform="translate(1619.539, 1610.378745)"><g><path d="M 240.015625 -382.0625 C 284.796875 -382.0625 318.613281 -371.097656 341.46875 -349.171875 C 364.320312 -327.242188 375.75 -292.253906 375.75 -244.203125 L 375.75 0 L 314.875 0 L 314.875 -240.015625 C 314.875 -300.191406 286.882812 -330.28125 230.90625 -330.28125 C 189.394531 -330.28125 160.707031 -318.613281 144.84375 -295.28125 C 128.976562 -271.957031 121.046875 -238.375 121.046875 -194.53125 L 121.046875 0 L 59.484375 0 L 59.484375 -375.0625 L 109.15625 -375.0625 L 118.25 -323.984375 L 121.75 -323.984375 C 133.882812 -343.566406 150.679688 -358.140625 172.140625 -367.703125 C 193.597656 -377.273438 216.222656 -382.0625 240.015625 -382.0625 Z M 240.015625 -382.0625 "></path></g></g></g><g fill="#000000" fill-opacity="1"><g transform="translate(2037.975236, 1610.378745)"><g><path d="M 201.53125 -381.359375 C 247.238281 -381.359375 281.054688 -371.328125 302.984375 -351.265625 C 324.910156 -331.203125 335.875 -299.25 335.875 -255.40625 L 335.875 0 L 291.09375 0 L 279.1875 -53.1875 L 276.390625 -53.1875 C 260.066406 -32.65625 242.804688 -17.488281 224.609375 -7.6875 C 206.421875 2.101562 181.695312 7 150.4375 7 C 116.382812 7 88.160156 -1.976562 65.765625 -19.9375 C 43.378906 -37.894531 32.1875 -66.003906 32.1875 -104.265625 C 32.1875 -141.578125 46.878906 -170.378906 76.265625 -190.671875 C 105.660156 -210.960938 150.910156 -222.046875 212.015625 -223.921875 L 275.703125 -226.015625 L 275.703125 -248.40625 C 275.703125 -279.65625 268.9375 -301.34375 255.40625 -313.46875 C 241.875 -325.601562 222.75 -331.671875 198.03125 -331.671875 C 178.4375 -331.671875 159.773438 -328.753906 142.046875 -322.921875 C 124.316406 -317.097656 107.753906 -310.453125 92.359375 -302.984375 L 73.46875 -349.171875 C 89.800781 -358.035156 109.160156 -365.613281 131.546875 -371.90625 C 153.941406 -378.207031 177.269531 -381.359375 201.53125 -381.359375 Z M 275 -183.328125 L 219.71875 -181.234375 C 173.070312 -179.367188 140.765625 -171.90625 122.796875 -158.84375 C 104.835938 -145.78125 95.859375 -127.351562 95.859375 -103.5625 C 95.859375 -82.570312 102.269531 -67.175781 115.09375 -57.375 C 127.925781 -47.582031 144.375 -42.6875 164.4375 -42.6875 C 195.6875 -42.6875 221.925781 -51.429688 243.15625 -68.921875 C 264.382812 -86.410156 275 -113.351562 275 -149.75 Z M 275 -183.328125 "></path></g></g></g><g fill="#000000" fill-opacity="1"><g transform="translate(2416.527169, 1610.378745)"><g><path d="M 234.40625 -382.0625 C 241.40625 -382.0625 248.867188 -381.707031 256.796875 -381 C 264.734375 -380.300781 271.96875 -379.253906 278.5 -377.859375 L 270.796875 -321.171875 C 264.734375 -322.578125 257.96875 -323.742188 250.5 -324.671875 C 243.039062 -325.609375 236.28125 -326.078125 230.21875 -326.078125 C 211.09375 -326.078125 193.128906 -320.828125 176.328125 -310.328125 C 159.535156 -299.835938 146.125 -285.144531 136.09375 -266.25 C 126.0625 -247.351562 121.046875 -225.3125 121.046875 -200.125 L 121.046875 0 L 59.484375 0 L 59.484375 -375.0625 L 109.859375 -375.0625 L 116.859375 -306.484375 L 119.65625 -306.484375 C 131.3125 -327.003906 146.816406 -344.726562 166.171875 -359.65625 C 185.535156 -374.59375 208.28125 -382.0625 234.40625 -382.0625 Z M 234.40625 -382.0625 "></path></g></g></g><g fill="#000000" fill-opacity="1"><g transform="translate(2691.51964, 1610.378745)"><g><path d="M 90.96875 -515.703125 C 100.289062 -515.703125 108.566406 -512.550781 115.796875 -506.25 C 123.035156 -499.957031 126.65625 -490.046875 126.65625 -476.515625 C 126.65625 -462.992188 123.035156 -453.082031 115.796875 -446.78125 C 108.566406 -440.476562 100.289062 -437.328125 90.96875 -437.328125 C 80.707031 -437.328125 72.078125 -440.476562 65.078125 -446.78125 C 58.078125 -453.082031 54.578125 -462.992188 54.578125 -476.515625 C 54.578125 -490.046875 58.078125 -499.957031 65.078125 -506.25 C 72.078125 -512.550781 80.707031 -515.703125 90.96875 -515.703125 Z M 121.046875 -375.0625 L 121.046875 0 L 59.484375 0 L 59.484375 -375.0625 Z M 121.046875 -375.0625 "></path></g></g></g><g fill="#000000" fill-opacity="1"><g transform="translate(2858.054444, 1610.378745)"><g><path d="M 201.53125 -381.359375 C 247.238281 -381.359375 281.054688 -371.328125 302.984375 -351.265625 C 324.910156 -331.203125 335.875 -299.25 335.875 -255.40625 L 335.875 0 L 291.09375 0 L 279.1875 -53.1875 L 276.390625 -53.1875 C 260.066406 -32.65625 242.804688 -17.488281 224.609375 -7.6875 C 206.421875 2.101562 181.695312 7 150.4375 7 C 116.382812 7 88.160156 -1.976562 65.765625 -19.9375 C 43.378906 -37.894531 32.1875 -66.003906 32.1875 -104.265625 C 32.1875 -141.578125 46.878906 -170.378906 76.265625 -190.671875 C 105.660156 -210.960938 150.910156 -222.046875 212.015625 -223.921875 L 275.703125 -226.015625 L 275.703125 -248.40625 C 275.703125 -279.65625 268.9375 -301.34375 255.40625 -313.46875 C 241.875 -325.601562 222.75 -331.671875 198.03125 -331.671875 C 178.4375 -331.671875 159.773438 -328.753906 142.046875 -322.921875 C 124.316406 -317.097656 107.753906 -310.453125 92.359375 -302.984375 L 73.46875 -349.171875 C 89.800781 -358.035156 109.160156 -365.613281 131.546875 -371.90625 C 153.941406 -378.207031 177.269531 -381.359375 201.53125 -381.359375 Z M 275 -183.328125 L 219.71875 -181.234375 C 173.070312 -179.367188 140.765625 -171.90625 122.796875 -158.84375 C 104.835938 -145.78125 95.859375 -127.351562 95.859375 -103.5625 C 95.859375 -82.570312 102.269531 -67.175781 115.09375 -57.375 C 127.925781 -47.582031 144.375 -42.6875 164.4375 -42.6875 C 195.6875 -42.6875 221.925781 -51.429688 243.15625 -68.921875 C 264.382812 -86.410156 275 -113.351562 275 -149.75 Z M 275 -183.328125 "></path></g></g></g></svg>
