<?xml version="1.0" standalone="no"?>
<!DOCTYPE svg PUBLIC "-//W3C//DTD SVG 20010904//EN"
 "http://www.w3.org/TR/2001/REC-SVG-20010904/DTD/svg10.dtd">
<svg version="1.0" xmlns="http://www.w3.org/2000/svg"
 width="1284.000000pt" height="418.000000pt" viewBox="0 0 1284.000000 418.000000"
 preserveAspectRatio="xMidYMid meet">

<g transform="translate(0.000000,418.000000) scale(0.100000,-0.100000)"
fill="#000000" stroke="none">
<path d="M830 3908 c-53 -37 -74 -72 -73 -125 0 -46 39 -109 888 -1463 488
-778 962 -1534 1054 -1680 91 -146 184 -285 206 -309 70 -77 140 -91 216 -43
24 16 56 44 70 63 14 19 221 347 461 729 239 382 540 862 668 1065 128 204
361 575 518 825 157 250 329 525 383 611 87 138 99 162 99 201 0 55 -31 106
-80 130 -33 17 -159 18 -2206 18 l-2171 0 -33 -22z m2048 -207 c-7 -21 -913
-1441 -919 -1441 -4 0 -32 39 -62 88 -30 48 -108 173 -174 277 -134 213 -623
989 -660 1048 l-23 37 921 0 c569 0 919 -4 917 -9z m2152 5 c0 -1 -202 -324
-450 -717 -247 -393 -451 -718 -454 -724 -2 -6 -10 -4 -18 5 -9 8 -212 326
-453 705 -241 380 -445 700 -453 713 l-14 22 921 0 c506 0 921 -2 921 -4z
m-1945 -248 c21 -35 84 -135 140 -223 398 -628 647 -1027 643 -1031 -3 -2
-379 -3 -837 -2 l-832 3 321 510 c497 789 514 814 520 810 4 -2 24 -32 45 -67z
m859 -1500 c-7 -12 -644 -1023 -832 -1321 -66 -105 -76 -116 -87 -100 -12 17
-746 1180 -853 1351 l-52 82 916 0 c729 0 914 -3 908 -12z"/>
<path d="M2905 2729 c-49 -83 -101 -168 -114 -190 l-23 -39 236 0 235 0 -114
187 c-62 103 -117 189 -122 190 -4 1 -48 -65 -98 -148z"/>
<path d="M8314 3348 c-31 -48 -504 -1085 -500 -1095 6 -14 172 -19 192 -5 7 4
30 48 52 97 l41 90 240 3 241 2 47 -97 48 -98 93 -3 c74 -2 93 0 98 12 3 8
-35 104 -85 213 -421 921 -405 888 -433 891 -14 2 -30 -3 -34 -10z m110 -555
c42 -93 76 -171 76 -175 0 -5 -72 -8 -161 -8 -125 0 -160 3 -156 13 29 74 151
337 157 337 4 0 42 -75 84 -167z"/>
<path d="M9075 3348 c-3 -7 -4 -258 -3 -558 l3 -545 95 0 95 0 5 353 5 354
333 -366 c338 -370 357 -387 390 -354 17 17 17 1089 0 1106 -17 17 -172 16
-187 -1 -7 -9 -12 -120 -13 -343 l-3 -329 -328 348 c-288 305 -332 347 -358
347 -16 0 -32 -6 -34 -12z"/>
<path d="M6045 3338 c-3 -7 -4 -256 -3 -553 l3 -540 95 0 95 0 3 196 2 197
143 4 c126 4 148 7 197 30 77 36 131 86 170 160 29 53 35 76 38 145 6 115 -20
185 -99 264 -94 94 -127 103 -407 107 -185 3 -233 1 -237 -10z m466 -204 c110
-64 104 -220 -10 -281 -38 -20 -58 -23 -153 -23 l-108 0 0 166 0 166 118 -4
c95 -3 125 -8 153 -24z"/>
<path d="M7032 3338 c-14 -14 -17 -1064 -4 -1086 7 -9 77 -12 318 -10 l309 3
3 88 3 87 -216 0 -215 0 0 453 c0 339 -3 456 -12 465 -16 16 -170 16 -186 0z"/>
<path d="M10355 3338 c-3 -7 -4 -256 -3 -553 l3 -540 345 0 345 0 3 87 3 88
-248 2 -248 3 -3 143 -3 142 210 0 c238 0 221 -7 221 95 0 97 5 95 -231 95
l-199 0 0 130 0 130 248 2 247 3 0 90 0 90 -343 3 c-269 2 -344 0 -347 -10z"/>
<path d="M11294 3337 c-3 -8 -4 -49 -2 -93 l3 -79 133 -3 132 -3 0 -447 c0
-246 4 -453 8 -460 6 -9 34 -12 103 -10 l94 3 3 457 2 457 133 3 132 3 0 90 0
90 -368 3 c-301 2 -368 0 -373 -11z"/>
<path d="M5314 1788 c-10 -18 -47 -98 -84 -178 -37 -80 -144 -313 -239 -518
-95 -205 -170 -379 -167 -387 4 -12 26 -15 94 -15 105 0 100 -3 153 114 l37
81 241 3 241 2 47 -97 48 -98 93 -3 c76 -2 93 0 98 13 4 8 -93 230 -224 517
-127 277 -236 517 -243 533 -31 72 -68 85 -95 33z m119 -545 l75 -168 -79 -3
c-43 -2 -114 -2 -157 0 l-79 3 75 168 c41 92 78 167 82 167 4 0 41 -75 83
-167z"/>
<path d="M7656 1804 c-205 -44 -370 -200 -432 -409 -28 -95 -24 -240 10 -335
118 -332 468 -470 836 -328 120 46 111 21 108 279 l-3 224 -175 0 -175 0 0
-85 0 -85 75 -5 75 -5 3 -66 c3 -64 2 -67 -25 -77 -197 -78 -401 -6 -489 173
-26 54 -29 70 -29 160 0 93 2 105 33 167 62 126 180 201 317 200 82 0 139 -18
214 -70 l54 -36 58 63 c33 35 59 71 59 81 0 38 -169 130 -286 155 -85 18 -139
18 -228 -1z"/>
<path d="M8895 1803 c-90 -19 -142 -42 -220 -98 -109 -77 -191 -206 -220 -342
-67 -314 134 -617 450 -679 292 -57 574 119 661 411 11 39 18 92 18 150 -1
160 -54 287 -168 401 -84 85 -177 135 -289 158 -92 19 -140 19 -232 -1z m267
-225 c79 -36 142 -98 181 -177 29 -59 32 -74 32 -156 0 -82 -3 -97 -32 -156
-39 -79 -102 -140 -181 -177 -49 -23 -70 -27 -152 -27 -83 0 -102 3 -151 27
-72 36 -141 105 -176 176 -25 51 -28 68 -28 157 0 86 3 107 25 150 26 53 85
123 132 156 91 65 242 76 350 27z"/>
<path d="M9872 1808 c-14 -14 -17 -1084 -4 -1106 6 -9 33 -12 98 -10 l89 3 3
353 c1 195 6 352 10 350 8 -3 122 -127 447 -483 120 -132 222 -242 227 -243 5
-2 20 -1 34 2 l24 6 -2 558 -3 557 -95 0 -95 0 -3 -337 c-2 -318 -6 -363 -29
-324 -4 7 -151 165 -327 350 -321 339 -341 357 -374 324z"/>
<path d="M6145 1788 c-3 -7 -4 -256 -3 -553 l3 -540 88 -3 c57 -2 94 1 103 9
11 9 14 53 14 215 l0 204 88 0 87 0 110 -215 110 -215 103 0 c81 0 104 3 108
15 3 8 -42 104 -103 217 -59 111 -109 205 -111 209 -2 4 21 20 51 37 70 39
131 109 158 181 28 74 23 183 -12 256 -31 66 -97 130 -167 163 -57 27 -57 27
-340 30 -225 3 -283 1 -287 -10z m552 -204 c15 -11 39 -42 52 -68 22 -45 23
-52 12 -95 -15 -56 -62 -108 -111 -121 -19 -5 -95 -10 -167 -10 l-133 0 0 161
0 160 159 -3 c142 -3 163 -5 188 -24z"/>
</g>
</svg>
