<svg width="295" height="292" viewBox="0 0 295 292" fill="none" xmlns="http://www.w3.org/2000/svg">
<g clip-path="url(#clip0_505_166)">
<circle cx="140" cy="140" r="140" fill="#CC0000"/>
<path fill-rule="evenodd" clip-rule="evenodd" d="M99.3216 84.9951H98.7581C97.1239 84.9951 95.4897 85.0514 93.8555 85.2205L92.7848 81.8957C94.6444 81.6703 96.4477 81.5576 98.1946 81.5576L99.3216 84.9951ZM125.187 86.8547L124.962 90.6303C123.158 89.8977 121.355 89.2215 119.496 88.6016L119.721 84.8824C123.271 85.8967 124.68 86.5729 125.187 86.8547ZM76.7245 160H32.2064C32.2064 160 33.897 143.319 45.7309 123.596C57.5648 103.873 77.7388 88.9398 94.1372 87.4746C126.765 84.2062 156.068 113.453 156.068 113.453C156.068 113.453 155.11 114.129 154.096 114.974C123.239 92.1579 103.957 101.707 97.1062 105.099L97.1059 105.099L97.1015 105.101L97.1011 105.101C96.8474 105.227 96.6108 105.344 96.3913 105.451C68.2153 121.173 76.7245 160 76.7245 160ZM119.608 102.577L119.383 106.127C121.242 106.183 123.102 106.409 124.962 106.803L125.187 103.309C123.271 102.915 121.411 102.69 119.608 102.577ZM101.463 105.733L102.759 109.621C104.393 108.832 106.028 108.156 107.662 107.649L106.422 103.929C104.506 104.493 102.872 105.113 101.463 105.733ZM73.3433 87.0238L75.8792 90.9121C74.414 91.6447 73.0052 92.4899 71.5401 93.3916L68.9479 89.4469C70.4694 88.5453 71.9345 87.7564 73.3433 87.0238ZM87.4312 116.27L90.1361 120.328C91.0941 118.919 92.2211 117.623 93.4609 116.327L90.925 112.495C89.6289 113.678 88.4455 114.974 87.4312 116.27ZM83.8247 138.022L79.2602 134.416C79.711 132.387 80.2182 130.302 80.9508 128.217L85.0081 131.429C84.4446 133.627 84.0501 135.825 83.8247 138.022ZM54.5781 107.649L50.5771 104.155C49.1119 105.564 47.7031 106.972 46.407 108.381L50.7461 112.1C51.9295 110.579 53.2256 109.057 54.5781 107.649ZM31.0793 130.471L37.5598 132.838C36.6582 134.923 35.4748 137.684 34.7422 139.6L28.2617 137.233C28.8252 135.712 30.0086 132.894 31.0793 130.471ZM78.4149 148.729C78.5277 151.716 78.8094 154.139 79.0912 155.83L85.8534 158.253C85.3462 156.055 84.8391 153.575 84.501 150.927L78.4149 148.729ZM133.413 133.856C133.413 146.535 123.595 147.377 123.595 147.377L136.106 159.999H120.173L110.86 150.35V159.999H100.089V119.999H121.519C121.519 119.999 133.413 121.177 133.413 133.856ZM110.86 139.186H119.444C119.444 139.186 121.912 138.232 121.912 134.586C121.912 130.939 119.5 130.041 119.5 130.041H110.86V139.186ZM160.445 119.999H149.429C141.577 119.999 138.921 127.117 138.921 130.507V159.997H149.938V152.935H160.276V159.997H170.953V130.507C170.953 121.92 163.157 119.999 160.445 119.999ZM160.219 141.523H149.881V131.75C149.881 131.75 149.881 129.547 153.327 129.547H157.112C160.163 129.547 160.219 131.75 160.219 131.75V141.523ZM175.981 119.999H187.449V159.997H175.981V119.999ZM203.55 119.999V149.658H218.972V159.997H192.138V119.999H203.55ZM222.757 159.997V149.771L241.457 149.715V144.743C234.542 144.743 237.154 144.763 237.885 144.768C237.45 144.765 236.072 144.758 232.757 144.743C228.181 144.743 222.192 141.184 222.192 134.236V130.677C222.192 123.728 228.237 119.999 232.757 119.999H250.27V130.281H232.022V135.027H241.231C246.315 135.027 251.738 138.925 251.738 145.534V149.489C251.512 157.228 245.016 159.997 241.231 159.997H222.757Z" fill="white"/>
<rect x="3.92676" y="222.172" width="285.435" height="70" rx="2" transform="rotate(-5 3.92676 222.172)" fill="#CC0000"/>
<rect x="12.5959" y="229.444" width="269.43" height="54" transform="rotate(-5 12.5959 229.444)" fill="white"/>
<path fill-rule="evenodd" clip-rule="evenodd" d="M25.0956 240.397L27.7103 270.282L35.7297 269.581L34.9976 261.213L43.2162 260.494L42.5189 252.524L34.3003 253.243L33.8123 247.665L46.0655 246.593L45.3682 238.623L25.0956 240.397ZM48.781 260.358L47.5695 246.511C47.1817 242.078 50.4542 238.178 54.8873 237.79L62.2592 237.145C66.6922 236.757 70.5879 239.98 70.9758 244.413L72.1959 258.36C72.5838 262.793 69.3567 266.639 64.9236 267.027L57.502 267.676C53.0689 268.064 49.1689 264.791 48.781 260.358ZM56.7549 259.711L64.2264 259.057L63.0062 245.11L55.5347 245.764L56.7549 259.711ZM73.0356 236.202L74.9486 258.069C75.3365 262.502 79.2365 265.774 83.6696 265.387L90.5932 264.781C95.0262 264.393 98.2533 260.547 97.8655 256.114L95.948 234.198L87.9785 234.895L89.8959 256.811L82.9226 257.421L81.0051 235.505L73.0356 236.202ZM102.042 263.779L99.4271 233.893L107.397 233.196L118.767 250.722L117.159 232.342L125.129 231.645L127.744 261.531L119.326 262.267L108.421 244.901L110.011 263.082L102.042 263.779ZM129.838 231.233L132.453 261.119L147.346 259.816C151.729 259.432 155.006 255.582 154.618 251.149L153.398 237.202C153.01 232.769 149.065 229.551 144.682 229.934L129.838 231.233ZM146.649 251.846L139.725 252.452L138.505 238.505L145.429 237.899L146.649 251.846ZM156.064 259.053L162.116 228.409L173.373 227.424L184.754 256.543L176.336 257.279L174.807 252.996L165.244 253.833L164.482 258.317L156.064 259.053ZM166.589 245.685L172.018 245.21L168.368 235.039L166.589 245.685ZM188.213 234.156L190.131 256.073L198.449 255.345L196.531 233.428L204.401 232.74L203.704 224.77L179.646 226.875L180.343 234.845L188.213 234.156ZM208.584 254.458L205.969 224.572L213.989 223.871L216.603 253.756L208.584 254.458ZM218.429 231.563L219.64 245.41C220.028 249.843 223.928 253.116 228.361 252.728L235.783 252.078C240.216 251.691 243.443 247.845 243.055 243.412L241.835 229.465C241.447 225.032 237.551 221.809 233.118 222.197L225.747 222.842C221.313 223.23 218.041 227.13 218.429 231.563ZM235.086 244.109L227.614 244.763L226.394 230.816L233.865 230.162L235.086 244.109ZM244.891 221.167L247.506 251.053L255.475 250.356L253.885 232.175L264.79 249.541L273.207 248.804L270.593 218.918L262.623 219.616L264.231 237.995L252.861 220.47L244.891 221.167Z" fill="black"/>
</g>
<defs>
<clipPath id="clip0_505_166">
<rect width="294.376" height="291.906" fill="white"/>
</clipPath>
</defs>
</svg>
