<?xml version="1.0" encoding="UTF-8"?>
<svg id="Layer_2" data-name="Layer 2" xmlns="http://www.w3.org/2000/svg" viewBox="0 0 338.03 125.24">
  <defs>
    <style>
      .cls-1 {
        fill: #212121;
        stroke-width: 0px;
      }
    </style>
  </defs>
  <g id="Layer_1-2" data-name="Layer 1">
    <g>
      <path class="cls-1" d="m336.42,119.73c-1.1-.73-5.51-3.67-7.71-5.51-.73-.73-.37-1.84-1.1-2.57-1.1-1.1-2.57-2.57-4.04-3.67-1.47-1.47-2.57-2.94-4.04-4.41-1.1-1.47-4.77-6.61-7.71-9.92-2.94-3.67-8.81-7.71-10.65-11.75,0-.37-.37-.37-.37-.73-.37-1.1-.73-2.57-.37-4.41,0-1.47.37-3.31,2.2-5.88,1.84-2.94,1.47-4.04.73-4.41-.73,0-1.47,0-.73-2.94.73-2.57.37-3.67-.37-4.41-.37-.73-.73-1.1-1.1-.73-.73,0-1.47,2.2-2.2,2.57-.37,0-1.1.73-1.1-1.84,0-.73-.37-.73-.73-.37-.73.37-2.2,1.84-2.57,4.41,0,0-.37.37-.37,0v-1.84c.37-.73.73-1.84.37-1.84s-1.1,1.1-1.84,2.2c0,0,0,.37-.37.37,0,0-.37.37-.37,0v-1.47q-.37,0-.73.37c-.73.37-1.1,1.1-1.47,2.2h0v.37h0v.37h0v1.1h0v1.47h0v.37c0,.37-.73.37-.37.73.37,1.47.73,2.94,1.1,3.67,0,.37,0,.73-.37.73-1.47.37-5.14,1.47-7.71,3.31,0,0-.37.37,0,.73h.73c2.94-1.1,7.35-2.57,9.18-.73,1.47,1.1,1.47,3.67.73,6.61-.37,1.1-.73,1.84-1.1,2.94h0c-4.41,11.39,3.67,16.89,11.02,23.51.73.37,1.47,1.84,2.57,3.31.73,1.1,1.47,2.2,1.47,3.31s-.37,2.2-.73,3.67c-.37,1.84-.73,1.1-3.67,0-.73-.37-1.1,0-1.47,1.1-.73,1.1-.73,1.47-.37,1.47h6.61c.73.37,3.67,1.84,4.77,2.57h.73v-.73c-1.47-.73-4.04-2.94-4.04-3.67,0-.37.37-1.1.37-1.84.37-3.31.73-4.41,1.84-5.14,1.1-.73,4.04.73,6.24,1.47v.37c0,.37-.37,1.1-.73,2.2,0,0-.37.73-.73.73s-2.2-.73-3.67-.73c-.37,0-.73-.37-1.84,1.84v.37s5.14.37,5.88.37h.37c1.84,1.1,3.67,1.84,4.41,2.57q.73.37,1.1.37c.37-.37,0-.37-.37-.73,0,0-1.1-1.1-2.57-1.84-1.1-.73-2.2-1.1-2.2-1.84,0-.37,0-.73.37-1.1,0,0,.37-1.47.73-2.2h.37c5.51,1.84,7.35,5.51,11.75,7.71,5.14,3.67,10.65,1.47,6.24-2.2"/>
      <polygon class="cls-1" points="262.6 0 241.66 0 203.1 44.44 203.1 0 173.72 0 173.72 125.24 203.1 125.24 203.1 80.8 242.4 124.87 262.6 124.87 262.6 99.9 228.44 62.8 262.6 24.24 262.6 0"/>
      <polygon class="cls-1" points="127.81 69.05 68.31 2.57 66.11 0 46.28 0 46.28 125.24 75.29 125.24 75.29 57.29 130.01 118.63 135.52 125.24 156.82 125.24 156.82 0 127.81 0 127.81 69.05"/>
      <rect class="cls-1" width="29.01" height="125.24"/>
    </g>
  </g>
</svg>