<svg id="Layer_1" data-name="Layer 1" xmlns="http://www.w3.org/2000/svg" xmlns:xlink="http://www.w3.org/1999/xlink" viewBox="0 0 1546 564.07"><defs><style>.cls-1{fill:none;}.cls-2{clip-path:url(#clip-path);}.cls-3{clip-path:url(#clip-path-2);}.cls-4,.cls-5{fill:#fbba00;}.cls-4{fill-rule:evenodd;}.cls-6{fill:#1e1e1e;}</style><clipPath id="clip-path"><rect class="cls-1" width="1546" height="564.07"/></clipPath><clipPath id="clip-path-2"><rect class="cls-1" width="1546" height="564.07"/></clipPath></defs><g id="Artwork_32" data-name="Artwork 32"><g class="cls-2"><g class="cls-3"><path class="cls-4" d="M1010.65,401.58V105.18c0-100.59,105.71-122.19,181.17-93.5V68c-51.86-21.13-110.13-16.26-110.13,49.33H1166V173.6h-84.31V400.48Z"/><path class="cls-4" d="M1345.34,73.37h52.5l10.78,44h65.3V173.6h-57.51v131q0,39.36,34,39.4h36v56.24h-70.28q-70.78,0-70.78-75.81Z"/><rect class="cls-5" x="1220.16" y="117.35" width="71.04" height="282.85"/><rect class="cls-5" x="1220.16" y="14.98" width="71.04" height="58.39"/><path class="cls-4" d="M1546,400.28c-62.42,98.42-172.33,163.78-297.49,163.78s-235-65.36-297.45-163.79c73.35,67.56,179.46,110,297.45,110s224.13-42.47,297.49-110"/><path class="cls-6" d="M8.77,335.21V296.57q30.72,12.3,70.93,12.29,30,0,30-19.29c0-11.74-6.77-17.55-20.19-17.55H56.14Q0,272,0,215.8,0,158,82,158a201.1,201.1,0,0,1,65.48,10.48v38.64c-20.5-8.21-42.69-12.27-66.72-12.27-25.18,0-37.7,6.41-37.7,19.29Q43,231.61,65,231.63H94.77q61.38,0,61.42,56.13,0,58-78.25,57.94-38.46,0-69.17-10.49M188.65,344V159.68h36l5.44,23.18c21.14-15.45,42.18-23.18,63-23.18q34.79,0,49.36,25.28,35.22-25.32,66.12-25.28,58.32,0,58.31,70V344H420.31v-116q0-30.64-25.93-30.68-20.76,0-43.39,23.85V344H304.52V228.46q0-31.19-25.63-31.22-22.14,0-43.67,23.85V344Zm311.89-57.39q0-56.68,80-56.66a236.5,236.5,0,0,1,42.85,3.46v-12.1q0-24.71-47.93-24.73a211.31,211.31,0,0,0-60,8.79v-36.9a212.69,212.69,0,0,1,60-8.75q94.46,0,94.4,60.7V344H646.34l-20-13a105.4,105.4,0,0,1-51.2,13q-74.61,0-74.58-57.39m122.86-18.1c-11.75-2.33-26-3.46-42.85-3.46Q547,265,547,286t28.11,21.09q28.38,0,48.28-14.38ZM715.17,344V159.68h36l5.74,23.49q24.29-23.44,51.3-23.49v37.56q-26,0-46.5,23.3V344ZM837,129.85H871.4l7.07,29.83h42.78v36.86H883.57V281.3q0,25.79,22.28,25.82h15.4V344H883.4Q837,344,837,294.29Z"/></g></g></g></svg>